<?xml version="1.0" encoding="iso-8859-1"?>
<!-- Generator: Adobe Illustrator 16.0.0, SVG Export Plug-In . SVG Version: 6.00 Build 0)  -->
<!DOCTYPE svg PUBLIC "-//W3C//DTD SVG 1.1//EN" "http://www.w3.org/Graphics/SVG/1.1/DTD/svg11.dtd">
<svg xmlns="http://www.w3.org/2000/svg" xmlns:xlink="http://www.w3.org/1999/xlink" version="1.1" id="Capa_1" x="0px" y="0px" width="512px" height="512px" viewBox="0 0 31.535 31.535" style="enable-background:new 0 0 31.535 31.535;" xml:space="preserve">
<g>
	<path d="M31.535,13.503V11.1h-3.154V9.441L15.767,0.679L3.154,9.441V11.1H0v2.404h4.224V25.04H0.986L0,30.856h31.535l-0.986-5.816   h-3.238V13.503H31.535z M15.768,4.246c1.113,0,2.015,0.903,2.015,2.017c0,1.113-0.902,2.016-2.015,2.016   c-1.114,0-2.018-0.903-2.018-2.016C13.75,5.148,14.654,4.246,15.768,4.246z M10.688,25.04H7.916V13.503h2.772V25.04z M17.153,25.04   h-2.771V13.503h2.771V25.04z M23.619,25.04h-2.771V13.503h2.771V25.04z" fill="#006DF0"/>
</g>
<g>
</g>
<g>
</g>
<g>
</g>
<g>
</g>
<g>
</g>
<g>
</g>
<g>
</g>
<g>
</g>
<g>
</g>
<g>
</g>
<g>
</g>
<g>
</g>
<g>
</g>
<g>
</g>
<g>
</g>
</svg>
